<svg height="419pt" viewBox="-32 0 419 419.84" width="419pt" xmlns="http://www.w3.org/2000/svg"><path d="m253.007812 150.1875c0 69.75-56.542968 126.292969-126.292968 126.292969s-126.292969-56.542969-126.292969-126.292969 56.542969-126.292969 126.292969-126.292969 126.292968 56.542969 126.292968 126.292969zm0 0" fill="#e7d1c4"/><path d="m348.578125 34.132812c0-9.5625-1.640625-18.722656-4.542969-27.304687-11.394531 33.71875-43.222656 58.023437-80.789062 58.023437-2.972656 0-5.890625-.203124-8.785156-.5 15.832031 12.921876 27.082031 31.203126 31.058593 52.078126 36.308594-9.808594 63.058594-42.886719 63.058594-82.296876zm0 0" fill="#edebdc"/><path d="m285.519531 123.253906c-1.265625 0-2.523437-.351562-3.617187-1.039062-1.613282-1.007813-2.734375-2.640625-3.089844-4.507813-3.59375-18.839843-13.773438-35.90625-28.667969-48.066406-2.339843-1.898437-3.144531-5.113281-1.992187-7.898437 1.160156-2.78125 4.046875-4.414063 6.996094-4.179688 2.664062.269531 5.359374.464844 8.097656.464844 33.660156 0 63.535156-21.453125 74.328125-53.386719.941406-2.773437 3.539062-4.640625 6.464843-4.640625 2.929688 0 5.535157 1.867188 6.46875 4.640625 3.25 9.625 4.898438 19.546875 4.898438 29.492187 0 41.5-28.007812 78.054688-68.105469 88.886719-.585937.152344-1.1875.234375-1.78125.234375zm-14.253906-51.921875c8.945313 10.554688 15.527344 22.976563 19.222656 36.347657 30.511719-11.273438 51.265625-40.582032 51.265625-73.546876 0-2.011718-.082031-4.019531-.242187-6.027343-15.15625 24.46875-41.097657 40.695312-70.246094 43.226562zm0 0" fill="#4c241d"/><path d="m48.207031 34.132812c0-9.5625 1.640625-18.722656 4.542969-27.304687 11.398438 33.71875 43.222656 58.023437 80.789062 58.023437 2.972657 0 5.894532-.203124 8.785157-.5-15.828125 12.921876-27.078125 31.203126-31.054688 52.078126-36.308593-9.808594-63.0625-42.886719-63.0625-82.296876zm0 0" fill="#edebdc"/><path d="m111.265625 123.253906c-.59375 0-1.191406-.082031-1.78125-.234375-40.097656-10.832031-68.105469-47.386719-68.105469-88.886719 0-9.953124 1.648438-19.875 4.902344-29.492187.9375-2.773437 3.539062-4.640625 6.464844-4.640625 2.925781 0 5.527344 1.867188 6.46875 4.640625 10.792968 31.933594 40.664062 53.386719 74.324218 53.386719 2.738282 0 5.433594-.195313 8.101563-.464844 2.972656-.234375 5.839844 1.398438 6.992187 4.179688 1.15625 2.785156.347657 6-1.992187 7.898437-14.894531 12.160156-25.074219 29.226563-28.667969 48.066406-.351562 1.867188-1.472656 3.5-3.085937 4.507813-1.09375.6875-2.355469 1.039062-3.621094 1.039062zm-55.992187-95.148437c-.160157 2.007812-.238282 4.015625-.238282 6.027343 0 32.964844 20.75 62.273438 51.265625 73.546876 3.691407-13.371094 10.273438-25.792969 19.21875-36.347657-29.144531-2.53125-55.085937-18.757812-70.246093-43.226562zm0 0" fill="#4c241d"/><path d="m102.820312 242.203125c-13.476562 0-24.402343-10.925781-24.402343-24.402344 0-13.480469 10.925781-24.402343 24.402343-24.402343zm0 0" fill="#ffe8dc"/><path d="m102.820312 249.027344c-17.21875 0-31.226562-14.007813-31.226562-31.226563 0-17.222656 14.007812-31.226562 31.226562-31.226562 3.773438 0 6.828126 3.050781 6.828126 6.824219v48.800781c0 3.773437-3.054688 6.828125-6.828126 6.828125zm-6.828124-47.421875c-6.304688 2.667969-10.746094 8.921875-10.746094 16.195312 0 7.269531 4.441406 13.527344 10.746094 16.191407zm0 0" fill="#4c241d"/><path d="m293.964844 193.398438c13.476562 0 24.402344 10.921874 24.402344 24.402343 0 13.476563-10.921876 24.402344-24.402344 24.402344zm0 0" fill="#ffe8dc"/><path d="m293.964844 249.027344c-3.773438 0-6.824219-3.054688-6.824219-6.828125v-48.800781c0-3.773438 3.050781-6.824219 6.824219-6.824219 17.222656 0 31.230468 14.003906 31.230468 31.226562 0 17.21875-14.007812 31.226563-31.230468 31.226563zm6.828125-47.421875v32.390625c6.304687-2.667969 10.746093-8.921875 10.746093-16.195313 0-7.273437-4.441406-13.527343-10.746093-16.195312zm0 0" fill="#4c241d"/><path d="m102.820312 160.425781h191v138.714844h-191zm0 0" fill="#ffe8dc"/><path d="m293.820312 305.964844h-191c-3.773437 0-6.828124-3.050782-6.828124-6.824219v-138.714844c0-3.773437 3.054687-6.824219 6.828124-6.824219h191c3.773438 0 6.828126 3.050782 6.828126 6.824219v138.714844c0 3.773437-3.054688 6.824219-6.828126 6.824219zm-184.171874-13.652344h177.34375v-125.058594h-177.34375zm0 0" fill="#4c241d"/><path d="m251.128906 386.75-51.390625 26.261719-53.359375-26.46875c-26.746094-13.269531-43.558594-39.859375-43.558594-68.878907v-40.789062c0-26.609375 22.355469-48.183594 49.929688-48.183594h91.144531c27.574219 0 49.925781 21.574219 49.925781 48.183594v41.433594c0 28.683594-16.425781 55.015625-42.691406 68.441406zm0 0" fill="#fc8c29"/><path d="m199.738281 419.839844c-1.039062 0-2.078125-.242188-3.03125-.714844l-53.359375-26.472656c-29.207031-14.484375-47.355468-43.21875-47.355468-74.984375v-40.796875c0-30.332032 25.460937-55.003906 56.753906-55.003906h91.148437c31.292969 0 56.753907 24.671874 56.753907 55.003906v41.433594c0 31.339843-17.789063 59.894531-46.414063 74.519531l-51.386719 26.269531c-.972656.5-2.042968.746094-3.109375.746094zm-46.992187-184.320313c-23.765625 0-43.097656 18.554688-43.097656 41.351563v40.792968c0 26.546876 15.238281 50.59375 39.765624 62.761719l50.28125 24.9375 48.324219-24.699219c24.039063-12.28125 38.972657-36.171874 38.972657-62.359374v-41.433594c0-22.796875-19.332032-41.351563-43.097657-41.351563zm0 0" fill="#4c241d"/><path d="m212.480469 235.519531h-27.742188c-3.773437 0-6.824219-3.054687-6.824219-6.828125v-54.613281c0-3.773437 3.050782-6.824219 6.824219-6.824219h27.742188c3.773437 0 6.828125 3.050782 6.828125 6.824219v54.613281c0 3.773438-3.054688 6.828125-6.828125 6.828125zm-20.914063-13.652343h14.085938v-40.960938h-14.085938zm0 0" fill="#4c241d"/><path d="m98.609375 148.660156c0-56.152344 45.519531-101.671875 101.671875-101.671875s101.671875 45.519531 101.671875 101.671875zm0 0" fill="#b5a19c"/><path d="m301.953125 155.484375h-203.347656c-3.773438 0-6.824219-3.050781-6.824219-6.824219 0-59.828125 48.671875-108.5 108.496094-108.5 59.828125 0 108.5 48.671875 108.5 108.5.003906 3.773438-3.050782 6.824219-6.824219 6.824219zm-196.28125-13.652344h189.214844c-3.515625-49.125-44.601563-88.019531-94.609375-88.019531-50.003906 0-91.089844 38.894531-94.605469 88.019531zm0 0" fill="#4c241d"/><path d="m171.8125 30.71875h53.886719v97.605469h-53.886719zm0 0" fill="#ffce56"/><path d="m225.699219 135.152344h-53.886719c-3.773438 0-6.824219-3.054688-6.824219-6.828125v-97.605469c0-3.773438 3.050781-6.824219 6.824219-6.824219h53.886719c3.773437 0 6.828125 3.050781 6.828125 6.824219v97.605469c0 3.773437-3.054688 6.828125-6.828125 6.828125zm-47.058594-13.652344h40.234375v-83.953125h-40.234375zm0 0" fill="#4c241d"/><path d="m89.167969 126.292969h218.453125v47.785156h-218.453125zm0 0" fill="#b5a19c"/><g fill="#4c241d"><path d="m307.621094 180.90625h-218.453125c-3.773438 0-6.828125-3.054688-6.828125-6.828125v-47.785156c0-3.773438 3.054687-6.828125 6.828125-6.828125h218.453125c3.773437 0 6.824218 3.054687 6.824218 6.828125v47.785156c0 3.773437-3.050781 6.828125-6.824218 6.828125zm-211.628906-13.652344h204.800781v-34.132812h-204.800781zm0 0"/><path d="m239.351562 208.214844c-2.859374 0-5.519531-1.808594-6.472656-4.667969-1.191406-3.582031.742188-7.445313 4.3125-8.632813l20.480469-6.828124c3.605469-1.191407 7.441406.742187 8.636719 4.3125 1.191406 3.582031-.742188 7.445312-4.316406 8.636718l-20.476563 6.824219c-.722656.242187-1.449219.355469-2.164063.355469zm0 0"/><path d="m164.261719 208.214844c-.714844 0-1.441407-.113282-2.164063-.355469l-20.476562-6.824219c-3.574219-1.1875-5.507813-5.054687-4.316406-8.636718 1.195312-3.574219 5.019531-5.507813 8.636718-4.3125l20.480469 6.828124c3.574219 1.183594 5.507813 5.050782 4.3125 8.632813-.953125 2.859375-3.613281 4.667969-6.472656 4.667969zm0 0"/><path d="m212.046875 283.308594h-27.308594c-3.773437 0-6.824219-3.054688-6.824219-6.828125 0-3.773438 3.050782-6.828125 6.824219-6.828125h27.308594c3.773437 0 6.828125 3.054687 6.828125 6.828125 0 3.773437-3.054688 6.828125-6.828125 6.828125zm0 0"/><path d="m120.347656 150.1875c0 4.023438-3.265625 7.285156-7.289062 7.285156-4.023438 0-7.285156-3.261718-7.285156-7.285156s3.261718-7.285156 7.285156-7.285156c4.023437 0 7.289062 3.261718 7.289062 7.285156zm0 0"/><path d="m154.480469 150.1875c0 4.023438-3.261719 7.285156-7.289063 7.285156-4.023437 0-7.285156-3.261718-7.285156-7.285156s3.261719-7.285156 7.285156-7.285156c4.027344 0 7.289063 3.261718 7.289063 7.285156zm0 0"/><path d="m188.613281 150.1875c0 4.023438-3.261719 7.285156-7.285156 7.285156s-7.289063-3.261718-7.289063-7.285156 3.265626-7.285156 7.289063-7.285156 7.285156 3.261718 7.285156 7.285156zm0 0"/><path d="m222.746094 150.1875c0 4.023438-3.261719 7.285156-7.285156 7.285156-4.023438 0-7.285157-3.261718-7.285157-7.285156s3.261719-7.285156 7.285157-7.285156c4.023437 0 7.285156 3.261718 7.285156 7.285156zm0 0"/><path d="m256.878906 150.1875c0 4.023438-3.261718 7.285156-7.285156 7.285156s-7.285156-3.261718-7.285156-7.285156 3.261718-7.285156 7.285156-7.285156 7.285156 3.261718 7.285156 7.285156zm0 0"/><path d="m291.011719 150.1875c0 4.023438-3.261719 7.285156-7.285157 7.285156-4.023437 0-7.285156-3.261718-7.285156-7.285156s3.261719-7.285156 7.285156-7.285156c4.023438 0 7.285157 3.261718 7.285157 7.285156zm0 0"/><path d="m205.21875 64.851562c0 3.773438-3.054688 6.828126-6.824219 6.828126s-6.828125-3.054688-6.828125-6.828126c0-3.769531 3.058594-6.824218 6.828125-6.824218s6.824219 3.054687 6.824219 6.824218zm0 0"/><path d="m205.21875 98.988281c0 3.769531-3.054688 6.824219-6.824219 6.824219s-6.828125-3.054688-6.828125-6.824219c0-3.773437 3.058594-6.828125 6.828125-6.828125s6.824219 3.054688 6.824219 6.828125zm0 0"/></g></svg>